<?xml version="1.0" encoding="UTF-8" standalone="no"?>
<!-- Created with Inkscape (http://www.inkscape.org/) -->

<svg
   width="210.70921mm"
   height="179.22552mm"
   viewBox="0 0 210.70921 179.22552"
   version="1.1"
   id="svg1"
   xml:space="preserve"
   xmlns="http://www.w3.org/2000/svg"
   xmlns:svg="http://www.w3.org/2000/svg"><defs
     id="defs1" /><g
     id="layer1"
     transform="translate(-0.08970944,-21.06494)"><g
       id="g24"
       style="fill:#333333"><path
         style="display:inline;fill:#333333;fill-opacity:0.980044;stroke:#000000;stroke-width:1.14342;stroke-linejoin:miter;stroke-dasharray:none;stroke-opacity:1"
         d="m 44.414582,100.76186 -1.14657,98.20291 123.829758,1.00207 -1.43322,-99.4555 10.31916,6.01242 L 209.23429,77.964761 169.67755,39.134529 125.82118,22.099331 C 111.27507,33.004452 101.42004,33.3893 81.964814,21.598295 L 39.812617,38.611077 1.8405625,74.897544 34.948126,106.54531 l 9.183621,-5.30315"
         id="path20" /><path
         style="display:inline;fill:#333333;fill-opacity:0.980044;stroke:#000000;stroke-width:0.587999;stroke-linejoin:miter;stroke-dasharray:none;stroke-opacity:1"
         d="m 43.429009,195.24896 123.403321,0.48232 v 0"
         id="path21" /><path
         style="display:inline;fill:#333333;fill-opacity:0.980044;stroke:#000000;stroke-width:0.587999;stroke-linejoin:miter;stroke-dasharray:none;stroke-opacity:1"
         d="M 4.1822741,72.709206 37.31256,104.96251 v 0"
         id="path22" /><path
         style="display:inline;fill:#333333;fill-opacity:0.980044;stroke:#000000;stroke-width:0.587999;stroke-linejoin:miter;stroke-dasharray:none;stroke-opacity:1"
         d="M 174.27373,105.05637 206.93324,75.841958"
         id="path23" /><path
         style="fill:#333333;fill-opacity:0.980044;stroke:#000000;stroke-width:0.587999;stroke-linejoin:miter;stroke-dasharray:none;stroke-opacity:1"
         d="m 78.360008,23.257385 3.873318,-1.729596 c 16.851643,10.356151 29.996594,11.096762 43.702744,0.95006 l 3.84896,1.461631 c -17.41108,9.940097 -23.42108,16.936157 -51.425022,-0.682095 z"
         id="path24" /><path
         style="fill:#333333;fill-opacity:0.980044;stroke:#000000;stroke-width:0.587999;stroke-linejoin:miter;stroke-dasharray:none;stroke-opacity:1"
         d="m 39.699887,38.555781 c 3.346771,5.47513 5.672127,12.164916 6.845147,20.225049 0.245011,1.683538 0.439748,3.426861 0.583019,5.231387 0.81785,10.300997 -0.0414,22.596382 -2.799669,37.150063 v 0"
         id="path25" /><path
         style="fill:#333333;fill-opacity:0.980044;stroke:#000000;stroke-width:0.587999;stroke-linejoin:miter;stroke-dasharray:none;stroke-opacity:1"
         d="m 170.08986,38.899204 c -3.34677,5.47513 -5.67212,12.164916 -6.84514,20.225049 -0.24501,1.683538 -0.43975,3.426861 -0.58302,5.231387 -0.81785,10.300997 0.0414,22.596382 2.79967,37.15006 v 0"
         id="path25-7" /></g></g></svg>
